# xmcd
#
# Track frame offsets:
#	150
#	20315
#	35760
#	53174
#	70464
#	86044
#	103425
#	120943
#	137786
#	148740
#	165128
#	180783
#
# Disc length: 2603 seconds
#
# Revision: 2
# Processed by: cddbd v1.5.2PL0 Copyright (c) Steve Scherf et al.
# Submitted via: EZCDAudioConverter 7.1.5.1
#
DISCID=9f0a290c
DTITLE=Ashley Monroe - Sparrow
DYEAR=2018
DGENRE=Country
TTITLE0=Orphan
TTITLE1=Hard On A Heart
TTITLE2=Hands On You
TTITLE3=Mother's Daughter
TTITLE4=Rita
TTITLE5=Wild Love
TTITLE6=This Heaven
TTITLE7=I'm Trying To
TTITLE8=She Wakes Me Up (Rescue Me)
TTITLE9=Paying Attention
TTITLE10=Daddy I Told You
TTITLE11=Keys To The Kingdom
EXTD=
EXTT0=
EXTT1=
EXTT2=
EXTT3=
EXTT4=
EXTT5=
EXTT6=
EXTT7=
EXTT8=
EXTT9=
EXTT10=
EXTT11=
PLAYORDER=
